<?xml version="1.0" encoding="utf-8"?>
<!-- Generator: Adobe Illustrator 23.0.3, SVG Export Plug-In . SVG Version: 6.00 Build 0)  -->
<svg version="1.1" id="Layer_1" xmlns="http://www.w3.org/2000/svg" xmlns:xlink="http://www.w3.org/1999/xlink" x="0px" y="0px"
	 viewBox="0 0 792 612" style="enable-background:new 0 0 792 612;" xml:space="preserve">
<style type="text/css">
	.st0{fill:#58595B;}
	.st1{fill:none;stroke:#F7941D;stroke-width:5;stroke-miterlimit:10;}
	.st2{fill:#F7941D;}
	.st3{fill:#FBB040;}
	.st4{fill:none;stroke:#000000;stroke-width:5;stroke-miterlimit:10;}
	.st5{fill:none;stroke:#000000;stroke-miterlimit:10;}
	.st6{fill:none;stroke:#000000;stroke-width:4;stroke-miterlimit:10;}
	.st7{fill:#F1F2F2;stroke:#F7941D;stroke-width:3;stroke-miterlimit:10;}
	.st8{fill:#E6E7E8;stroke:#F7941D;stroke-width:3;stroke-miterlimit:10;}
	.st9{fill:#FFFFFF;}
	.st10{fill:#D1D3D4;}
</style>
<rect class="st0" width="792" height="469.51"/>
<polygon class="st1" points="312.69,254.22 328.27,292.58 289.36,288.43 "/>
<path class="st2" d="M606.03,469.51H368.89c-34.47,0-62.41-27.94-62.41-62.41v-44.74h218.61c44.7,0,80.94,36.24,80.94,80.94V469.51z
	"/>
<path class="st3" d="M431.19,349.26l-154.37-89.37v126.47c0,23.22,25.15,37.72,45.24,26.08L431.19,349.26z"/>
<polygon points="404.69,364.44 404.42,333.76 431.3,349.16 "/>
<line class="st4" x1="373.54" y1="366.01" x2="346.05" y2="386.4"/>
<line class="st4" x1="384.62" y1="367.34" x2="366.89" y2="404.58"/>
<line class="st4" x1="371.32" y1="357.58" x2="334.08" y2="357.58"/>
<line class="st5" x1="314.32" y1="329.13" x2="314.32" y2="329.13"/>
<path class="st6" d="M298.55,323.28c2.3,8,17.09,10.76,33.07,6.17"/>
<polygon class="st7" points="265.9,193.18 240.72,189.37 223.3,207.96 219.14,182.83 196.08,172.01 218.69,160.28 221.85,135.01 
	239.99,152.89 265.01,148.09 253.6,170.87 "/>
<polygon class="st7" points="395,194.92 382.33,192.4 373.73,202.04 371.45,188.49 359.79,182.25 371.06,176.39 372.46,162.9 
	381.69,172.83 394.22,170.73 388.66,182.73 "/>
<polygon class="st8" points="538.79,178.27 519.28,177.59 507.66,193.27 502.28,174.51 483.77,168.3 499.95,157.39 500.14,137.87 
	515.52,149.89 534.14,144.03 527.46,162.37 "/>
<polygon class="st7" points="460.06,279.29 449.4,277.52 440.7,283.91 440.48,274.81 431.19,270.55 441.71,266.71 444.67,257.68 
	451.39,264.4 462.52,263.08 456.15,271.08 "/>
<polygon class="st8" points="562.16,263.43 549.46,255.82 536.59,263.15 539.21,247.34 528.98,236.02 543.31,233.86 549.86,219.53 
	556.09,234.01 570.36,236.48 559.9,247.57 "/>
<polygon class="st7" points="698.96,205.08 675.16,201.79 658.95,219.53 654.73,195.88 632.84,185.95 654.03,174.62 656.71,150.74 
	674.04,167.39 697.57,162.56 687.09,184.18 "/>
<path class="st3" d="M620.32,469.51h-14.3V326.47c0-33.32,27.01-60.33,60.33-60.33h3.76v153.57
	C670.12,447.21,647.83,469.51,620.32,469.51z"/>
<path class="st9" d="M624.68,385.96L624.68,385.96l0-77.38c0-18.91,15.33-34.24,34.24-34.24h3.22v74.15
	C662.14,369.19,645.37,385.96,624.68,385.96z"/>
<rect y="469.51" class="st10" width="792" height="142.49"/>
</svg>
